<?xml version="1.0" encoding="UTF-8" standalone="no"?>
<!-- Generator: Adobe Illustrator 23.0.3, SVG Export Plug-In . SVG Version: 6.00 Build 0)  -->

<svg
   version="1.1"
   id="logosvg.com"
   x="0px"
   y="0px"
   viewBox="0 0 400 60"
   xml:space="preserve"
   sodipodi:docname="Wikipedia_wordmark_logo.svg"
   width="400"
   height="60"
   inkscape:version="1.1 (c68e22c387, 2021-05-23)"
   xmlns:inkscape="http://www.inkscape.org/namespaces/inkscape"
   xmlns:sodipodi="http://sodipodi.sourceforge.net/DTD/sodipodi-0.dtd"
   xmlns="http://www.w3.org/2000/svg"
   xmlns:svg="http://www.w3.org/2000/svg"><defs
   id="defs6" /><sodipodi:namedview
   id="namedview4"
   pagecolor="#505050"
   bordercolor="#eeeeee"
   borderopacity="1"
   inkscape:pageshadow="0"
   inkscape:pageopacity="0"
   inkscape:pagecheckerboard="0"
   showgrid="false"
   inkscape:zoom="2.51"
   inkscape:cx="171.11554"
   inkscape:cy="150"
   inkscape:window-width="1920"
   inkscape:window-height="1137"
   inkscape:window-x="1912"
   inkscape:window-y="-8"
   inkscape:window-maximized="1"
   inkscape:current-layer="logosvg.com" />
<path
   id="black"
   d="m 95.18664,1.54889 v 1.6 c 0,0.4 -0.3,0.7 -0.8,0.7 -2.5,0.1 -4.3,0.6 -5.4,1.6 -1.2,1 -2.1,2.3 -2.8,4 0,0 -15.2,34.9 -20.5,46.5 -2,3.8 -4,3.5 -5.7,-0.1 -2.2,-4.5 -6.6,-14.3 -9.9,-21.5 -3.5,7.3 -8.4,17.1 -10.7,21.6 -2.3,4 -4.2,3.5 -5.8,0.1 -5.3,-12.5 -16.2,-34.4 -21.3,-46.7 -0.9,-2.3 -1.7,-3.7 -2.3,-4.3 -0.7,-0.6 -2.1,-0.9 -4.2,-1 -0.8,-0.1 -1.2,-0.3 -1.2,-0.6 v -1.7 l 0.2,-0.2 c 3.5,0 20.4,0 20.4,0 l 0.2,0.2 v 1.6 c 0,0.5 -0.3,0.7 -0.8,0.7 l -2.1,0.1 c -1.8,0.1 -2.7,0.6 -2.7,1.6 0,0.5 0.2,1.2 0.6,2.3 4.1,9.9 18.2,39.6 18.2,39.6 l 0.5,0.1 9.1,-18.1 c -1.1,-2.4 -1.8,-4 -1.8,-4 l -6.2,-12.3 v 0 c 0,0 -1.2,-2.5 -1.6,-3.3 -2.7,-5.4 -2.7,-5.7 -5.5,-6.1 -0.8,-0.1 -1.2,-0.2 -1.2,-0.6 v -1.7 l 0.2,-0.2 c 5,0 16.1,0 16.1,0 l 0.4,0.1 v 1.7 c 0,0.4 -0.3,0.6 -0.8,0.6 l -1.2,0.2 c -3,0.2 -2.5,1.4 -0.5,5.4 l 6,12.2 6.6,-13.2 c 1.1,-2.4 0.9,-3 0.4,-3.6 -0.3,-0.3 -1.1,-0.8 -3.1,-0.9 l -0.8,-0.1 c -0.2,0 -0.4,-0.1 -0.5,-0.2 -0.2,-0.1 -0.3,-0.3 -0.3,-0.5 v -1.6 l 0.2,-0.2 c 4.7,0 15.2,0 15.2,0 v 0 l 0.2,0.2 v 1.6 c 0,0.5 -0.3,0.7 -0.8,0.7 -2.5,0.1 -3,0.4 -3.9,1.7 -0.5,0.7 -1.5,2.2 -2.5,3.9 l -8.6,16.1 c 0,0 -0.1,0.2 -0.2,0.5 l 10.5,21.5 0.6,0.2 16.6,-39.3 c 0.6,-1.6 0.5,-2.7 -0.3,-3.4 -0.7,-0.6 -1.3,-1 -3.2,-1.1 l -1.6,-0.1 c -0.2,0 -0.4,-0.1 -0.5,-0.2 -0.2,-0.1 -0.3,-0.3 -0.3,-0.5 v -1.6 l 0.2,-0.2 c 4.7,0 18.7,0 18.7,0 z m 6.7,50.7 v -28.5 c 0,-1.7 0.9,-2.4 3.6,-2.7 l 1.8,-0.2 c 0.3,0 0.5,-0.2 0.5,-0.4 v -1.9 l -0.1,-0.2 c 0,0 -6.6,0.2 -8.9,0.2 -2.6,0 -9.4,-0.2 -9.4,-0.2 l -0.1,0.2 v 2 c 0,0.3 0.3,0.3 0.6,0.3 l 1.7,0.2 c 2.6,0.2 3.7,0.8 3.7,2.6 v 28.5 c 0,1.6 -0.9,3 -3.7,3.2 l -1.7,0.2 c -0.3,0 -0.6,0.2 -0.6,0.5 v 1.8 l 0.2,0.2 c 0,0 6.7,-0.2 9.1,-0.2 2.6,0 9.1,0.2 9.1,0.2 l 0.1,-0.2 v -1.8 c 0,-0.3 -0.3,-0.5 -0.5,-0.5 l -1.8,-0.2 c -2.8,-0.1 -3.6,-1.2 -3.6,-3.1 z m 25.2,0 v 0 -12.7 c 1.9,0 3.2,0.4 4.5,2.1 l 9.5,11.8 c 1.2,1.4 1.3,2.3 1.3,3.4 v 1 l 0.1,0.1 c 0,0 3.1,-0.1 5.2,-0.1 2.4,0 6.9,0.1 6.9,0.1 l 0.3,-0.1 v -1.8 c 0,-0.3 -0.3,-0.4 -0.6,-0.5 l -0.4,-0.1 c -1.7,-0.3 -3.8,-0.9 -4.8,-2 l -12.9,-15.6 c -0.4,-0.5 -0.8,-0.9 -0.8,-1.4 0,-0.7 0.5,-1.6 2,-3.2 l 7.4,-8.5 c 3.1,-3.5 5.4,-3.7 8.7,-3.9 0.4,0 0.7,-0.2 0.7,-0.4 v -2 l -0.3,-0.1 c 0,0 -3.8,0.2 -6,0.2 -2.5,0 -9.4,-0.2 -9.4,-0.2 l -0.1,0.1 v 2 c 0,0.3 0.2,0.3 0.5,0.4 1.7,0.3 2.5,1 2.5,1.7 0,1.6 -2.6,4.8 -6.1,8.5 -3.8,4 -5.4,5.5 -8.2,5.5 v -12.9 c 0,-1.7 0.9,-2.1 3.6,-2.7 l 0.9,-0.2 c 0.3,-0.1 0.5,-0.2 0.5,-0.4 v -1.9 l -0.1,-0.2 c 0,0 -5.4,0.2 -7.8,0.2 -2.6,0 -9.7,-0.2 -9.7,-0.2 l -0.1,0.2 v 2 c 0,0.3 0.3,0.3 0.6,0.3 l 1.7,0.2 c 2.7,0.2 3.7,0.8 3.7,2.6 v 28.5 c 0,1.6 -1.1,3 -3.7,3.2 l -1.7,0.2 c -0.3,0 -0.6,0.2 -0.6,0.5 v 1.8 l 0.2,0.2 c 0,0 7,-0.2 9.4,-0.2 2.6,0 7.9,0.2 7.9,0.2 l 0.1,-0.2 v -1.8 c 0,-0.3 -0.3,-0.4 -0.5,-0.5 l -0.9,-0.2 c -2.4,-0.2 -3.5,-1.1 -3.5,-3 z m 46.1,0 v -28.5 c 0,-1.7 0.9,-2.4 3.6,-2.7 l 1.8,-0.2 c 0.3,0 0.5,-0.2 0.5,-0.4 v -1.9 l -0.1,-0.2 c 0,0 -6.6,0.2 -8.9,0.2 -2.6,0 -9.4,-0.2 -9.4,-0.2 l -0.1,0.2 v 2 c 0,0.3 0.3,0.3 0.6,0.3 l 1.7,0.2 c 2.6,0.2 3.7,0.8 3.7,2.6 v 28.5 c 0,1.6 -0.9,3 -3.7,3.2 l -1.7,0.2 c -0.3,0 -0.6,0.2 -0.6,0.5 v 1.8 l 0.2,0.2 c 0,0 6.7,-0.2 9.1,-0.2 2.6,0 9.1,0.2 9.1,0.2 l 0.1,-0.2 v -1.8 c 0,-0.3 -0.3,-0.5 -0.5,-0.5 l -1.8,-0.2 c -2.7,-0.1 -3.6,-1.2 -3.6,-3.1 z m 18.5,-28.3 v 0 28.7 c 0,1.6 -0.9,2.4 -3.5,2.7 l -1.8,0.3 c -0.3,0.1 -0.5,0.2 -0.5,0.5 v 1.8 l 0.1,0.2 c 0,0 6.4,-0.2 8.8,-0.2 2.6,0 9.5,0.2 9.5,0.2 l 0.1,-0.2 v -1.8 c 0,-0.3 -0.3,-0.4 -0.6,-0.5 l -1.7,-0.3 c -2.7,-0.4 -3.8,-0.9 -3.8,-2.7 v -11.4 c 1.5,0.7 3.3,0.9 5.4,0.9 12.1,0 14.6,-8 14.6,-13.2 0,-4.5 -2.2,-10.4 -14.4,-10.4 -3.2,0 -6.6,0.2 -9,0.2 -2.5,0 -7.5,-0.2 -8.8,-0.2 l -0.2,0.1 v 2 c 0,0.2 0.1,0.4 0.6,0.4 4.1,0.2 5.2,0.3 5.2,2.9 z m 6.5,14.9 v -14.9 c 0,-2.2 1,-3 5.1,-3 4.7,0 8,1.6 8,9 0,6.6 -2.5,9.7 -7.6,9.7 -1.6,0 -3.7,-0.1 -5.5,-0.8 z m 34.8,19.1 v 0 h 15 c 2.6,0 7.6,0.2 7.6,0.2 l 0.2,-0.2 1.7,-9.8 -2.1,-0.3 c -1,4.4 -3.4,7.2 -7.8,7.2 h -8.1 c -1.5,0 -2.5,-1.6 -2.5,-3.2 v -13.1 h 6.4 c 2.2,0 3,0.9 3.3,2.7 l 0.4,1.9 c 0,0.3 0.2,0.4 0.6,0.4 h 1.4 l 0.2,-0.2 c -0.2,-2 -0.5,-3.8 -0.5,-5.9 0,-2.1 0.3,-4.4 0.5,-6.3 0,-0.2 0,-0.3 -0.2,-0.3 h -1.4 c -0.3,0 -0.5,0.2 -0.5,0.4 l -0.5,1.8 c -0.3,1.7 -0.9,2.7 -3.3,2.7 h -6.4 v -12.4 c 0,-1.4 0.9,-2 2.5,-2 h 6.8 c 5.5,0 7.1,4.5 8,7.7 l 2.1,-0.3 c -0.6,-3.2 -1.2,-6.6 -1.3,-10.3 l -0.2,-0.2 c 0,0 -6.1,0.2 -8.6,0.2 h -12.6 c -2.6,0 -9.2,-0.2 -9.2,-0.2 l -0.1,0.2 v 2 c 0,0.1 0,0.3 0.5,0.3 l 2,0.2 c 2.4,0.2 3.4,0.5 3.4,2.5 v 28.2 c 0,1.7 -0.8,3.4 -3.4,3.7 l -2,0.2 c -0.4,0 -0.5,0.3 -0.5,0.4 v 1.9 l 0.1,0.2 c 0,-0.1 5.9,-0.3 8.5,-0.3 z m 32.1,-2.3 c -0.3,0 -0.5,0.3 -0.5,0.5 v 1.8 l 0.1,0.2 c 0,0 6.5,-0.2 9.1,-0.2 2.6,0 5.6,0.2 12.5,0.2 9.5,0 20.1,-4.4 20.1,-19.4 0,-11.4 -7,-20.3 -21.3,-20.3 -2.2,0 -9.7,0.2 -11.3,0.2 -1.5,0 -9.1,-0.2 -9.1,-0.2 l -0.1,0.2 v 1.9 c 0,0.3 0.3,0.4 0.6,0.4 l 1.9,0.2 c 2.8,0.2 3.4,0.2 3.4,2.5 v 28.2 c 0,2.6 -0.9,3.4 -3.4,3.7 z m 19.1,0 c -6.5,0 -7.1,-1.5 -7.1,-3.8 v -28.2 c 0,-2.1 2.1,-2.7 5.5,-2.7 14.4,0 16.3,10.3 16.3,19.2 0,12 -5.3,15.5 -14.7,15.5 z m 42.3,-3.4 v 0 -28.5 c 0,-1.7 0.9,-2.4 3.6,-2.7 l 1.8,-0.2 c 0.3,0 0.5,-0.2 0.5,-0.4 v -1.9 l -0.1,-0.2 c 0,0 -6.6,0.2 -8.9,0.2 -2.6,0 -9.4,-0.2 -9.4,-0.2 l -0.1,0.2 v 2 c 0,0.3 0.3,0.3 0.6,0.3 l 1.7,0.2 c 2.6,0.2 3.7,0.8 3.7,2.6 v 28.5 c 0,1.6 -0.9,3 -3.7,3.2 l -1.7,0.2 c -0.3,0 -0.6,0.2 -0.6,0.5 v 1.8 l 0.2,0.2 c 0,0 6.7,-0.2 9.1,-0.2 2.6,0 9.1,0.2 9.1,0.2 l 0.1,-0.2 v -1.8 c 0,-0.3 -0.3,-0.5 -0.5,-0.5 l -1.8,-0.2 c -2.7,-0.1 -3.6,-1.2 -3.6,-3.1 z m 26.3,3.3 c -3.2,-0.3 -4.3,-2.1 -3.4,-4.3 l 5,-12.4 c 0.4,-1.1 0.9,-1.4 3,-1.4 h 17.8 l 5.2,14.4 c 0.9,2.4 -0.3,3.4 -3.6,3.7 l -2.4,0.2 c -0.4,0 -0.6,0.3 -0.6,0.7 v 1.6 l 0.1,0.2 c 0,0 8.4,-0.2 11.4,-0.2 3.3,0 9.9,0.2 9.9,0.2 l 0.3,-0.2 v -1.7 c 0,-0.4 -0.4,-0.7 -0.9,-0.7 l -0.9,-0.1 c -3.4,-0.3 -5.1,-1.6 -6.3,-5 l -17.7,-46.2 c -0.7,-1.7 -1.1,-2.6 -2.3,-2.6 -1.3,0 -2,0.9 -2.9,3.1 l -19,44.5 c -2.4,5.5 -4.5,6.2 -8.3,6.4 -0.4,0 -0.7,0.3 -0.7,0.7 v 1.6 l 0.2,0.2 c 0,0 5.5,-0.2 7.7,-0.2 2.1,0 11.4,0.2 11.4,0.2 l 0.2,-0.2 v -1.7 c 0,-0.4 -0.3,-0.7 -0.7,-0.7 z m 21,-21.8 h -14.9 c -1.9,0 -2.5,-0.3 -2.1,-1.1 l 8.5,-21.7 h 0.2 z" />
</svg>
