<?xml version="1.0" encoding="utf-8"?>
<!-- Generator: Adobe Illustrator 24.1.1, SVG Export Plug-In . SVG Version: 6.00 Build 0)  -->
<svg version="1.1" id="Layer_1" xmlns="http://www.w3.org/2000/svg" xmlns:xlink="http://www.w3.org/1999/xlink" x="0px" y="0px"
	 viewBox="0 0 512 512" style="enable-background:new 0 0 512 512;" xml:space="preserve">
<style type="text/css">
	.st0{fill-rule:evenodd;clip-rule:evenodd;fill:#a0a5aa;}
</style>
<g>
	<path class="st0" d="M183.6,290.1l72.4,49.5l69.9-48.2L482.4,446c-4.1,1.3-8.5,2-13.1,2H42.7c-5.6,0-11-1.1-15.9-3.1L183.6,290.1z
		 M512,163.2v242.1c0,6.3-1.4,12.3-3.8,17.7L354.7,271.6L512,163.2z M0,164.6l154.7,105.8l-152,150c-1.7-4.7-2.7-9.7-2.7-15V164.6z
		 M469.3,64c23.6,0,42.7,19.1,42.7,42.7v15L256,298.2L0,123.1v-16.5C0,83.1,19.1,64,42.7,64H469.3z"/>
</g>
</svg>
